<?xml version="1.0" standalone="no"?>
<!DOCTYPE svg PUBLIC "-//W3C//DTD SVG 20010904//EN"
 "http://www.w3.org/TR/2001/REC-SVG-20010904/DTD/svg10.dtd">
<svg version="1.0" xmlns="http://www.w3.org/2000/svg"
 width="100.000000pt" height="100.000000pt" viewBox="0 0 700.000000 700.000000"
 preserveAspectRatio="xMidYMid meet">
<metadata>
Created by potrace 1.14, written by Peter Selinger 2001-2017
</metadata>
<g transform="translate(0.000000,700.000000) scale(0.100000,-0.100000)"
fill="#000000" stroke="none">
<path d="M3155 6989 c-140 -14 -387 -57 -530 -94 -475 -123 -890 -328 -1295
-641 -143 -111 -448 -412 -564 -559 -354 -445 -594 -963 -705 -1521 -48 -240
-55 -334 -55 -674 0 -340 7 -434 55 -674 213 -1071 899 -1974 1869 -2459 325
-163 632 -263 980 -321 217 -36 343 -46 583 -46 645 0 1246 167 1794 497 409
247 783 596 1059 989 845 1206 845 2822 0 4028 -120 170 -237 308 -400 471
-572 571 -1296 915 -2100 1000 -158 16 -536 18 -691 4z m-91 -1595 c327 -567
417 -729 410 -743 -5 -10 -61 -109 -124 -219 l-115 -201 -537 -3 -537 -3 265
-460 c145 -253 264 -464 264 -469 0 -5 -55 -105 -122 -222 l-122 -214 -816 0
-817 0 -21 113 c-23 120 -37 227 -47 375 l-7 92 602 0 c478 0 601 3 597 13 -2
6 -122 217 -266 466 -236 412 -259 457 -248 475 7 12 64 110 126 219 l114 197
534 0 c294 0 533 4 531 8 -1 5 -140 246 -307 537 -291 505 -304 528 -285 543
54 41 457 220 499 222 6 0 199 -327 429 -726z m1383 690 c96 -36 361 -160 396
-186 17 -13 -2 -50 -284 -538 -166 -289 -304 -530 -306 -537 -4 -10 103 -13
528 -13 l534 0 123 -213 c67 -118 122 -219 122 -226 0 -6 -114 -211 -254 -454
-140 -243 -258 -450 -262 -459 -6 -17 27 -18 592 -18 l599 0 -7 -122 c-7 -121
-27 -275 -51 -393 l-13 -60 -816 -3 -816 -2 -122 212 c-68 117 -123 218 -123
223 0 6 115 210 256 455 141 245 259 453 263 463 6 16 -23 17 -528 17 l-533 0
-125 216 c-69 120 -124 220 -123 223 1 5 796 1388 830 1444 7 11 17 9 120 -29z
m-1227 -3699 c207 -362 267 -461 276 -450 6 8 127 217 270 465 l259 450 253
-2 254 -3 399 -694 c219 -382 396 -697 394 -702 -13 -21 -212 -173 -328 -251
-96 -64 -134 -85 -140 -75 -5 6 -135 232 -290 501 -155 269 -286 489 -291 489
-6 -1 -127 -205 -271 -454 l-262 -454 -254 -3 -254 -2 -265 460 c-145 253
-267 460 -270 460 -3 0 -135 -227 -295 -504 l-289 -504 -83 52 c-100 62 -258
178 -332 244 l-54 48 393 684 c216 377 397 691 403 698 7 9 71 12 261 12 l251
-1 265 -464z"/>
</g>
</svg>
